Coordinates
version=1
nRows=10
nColumns=40
inDegrees=yes

Units are S.I. units (second, meters, Newtons, ...)
Angles are in degrees.

endheader
time	pelvis_tilt	pelvis_list	pelvis_rotation	pelvis_tx	pelvis_ty	pelvis_tz	hip_flexion_r	hip_adduction_r	hip_rotation_r	knee_angle_r	knee_angle_r_beta	ankle_angle_r	subtalar_angle_r	mtp_angle_r	hip_flexion_l	hip_adduction_l	hip_rotation_l	knee_angle_l	knee_angle_l_beta	ankle_angle_l	subtalar_angle_l	mtp_angle_l	lumbar_extension	lumbar_bending	lumbar_rotation	arm_flex_r	arm_add_r	arm_rot_r	elbow_flex_r	pro_sup_r	wrist_flex_r	wrist_dev_r	arm_flex_l	arm_add_l	arm_rot_l	elbow_flex_l	pro_sup_l	wrist_flex_l	wrist_dev_l
     28.34000000	     -3.36402123	     -4.17926360	      1.55401654	      1.11871398	      0.92099191	      0.45200583	     22.34561809	     -0.16172897	    -16.36137967	     22.18456199	     22.18456199	      5.13436448	     -5.66189554	     -4.33583511	      4.15414659	     -9.18698150	     -7.99187116	     43.54922997	     43.54922997	      8.50604519	    -16.33418765	    -11.53062625	     -8.20672865	      6.96820502	      1.69673258	    -10.84903565	    -12.45598451	    -24.48644330	     18.43996107	     47.78063807	      0.00000000	      0.00000000	     14.12669422	    -14.85913875	     -8.00720825	     88.04106141	     47.87601943	      0.00000000	      0.00000000
     28.35114286	     -3.38005106	     -4.28374175	      1.95142024	      1.11838114	      0.92255375	      0.45349954	     21.37061214	     -0.11171289	    -17.44324013	     21.64047558	     21.64047558	      5.95577089	     -4.08249615	     -4.10586818	      6.58051186	     -9.55234365	     -6.74027024	     48.02502415	     48.02502415	      9.22657574	    -16.64701668	     -4.06317718	     -8.11383426	      7.06173000	      1.71553249	     -9.33978156	    -12.64360501	    -23.66481251	     19.15327049	     47.68019640	      0.00000000	      0.00000000	     13.00552047	    -14.03525748	     -8.16229518	     85.43925937	     47.87246793	      0.00000000	      0.00000000
     28.36228571	     -3.26192458	     -4.63406016	      2.26894211	      1.11800989	      0.92396067	      0.45542282	     20.28565619	      0.39554526	    -18.06252756	     21.03073773	     21.03073773	      6.42051821	     -3.51267881	     -4.21954525	      8.61714656	    -10.38683770	     -6.01268342	     51.63376156	     51.63376156	      7.64263515	    -17.59486219	     -3.30074758	     -8.28503880	      7.34391444	      1.96924721	     -7.64920798	    -12.79064403	    -23.54386983	     19.91811471	     47.64954565	      0.00000000	      0.00000000	     11.64919482	    -13.35947508	     -7.70261454	     84.18579700	     47.81435579	      0.00000000	      0.00000000
     28.37342857	     -3.24026804	     -4.96633174	      2.61296860	      1.11757269	      0.92517635	      0.45729146	     19.24041192	      0.90250343	    -18.70776496	     20.28216535	     20.28216535	      6.82760586	     -2.79192629	     -4.33699489	     10.80908147	    -11.16433098	     -5.27270591	     54.97494546	     54.97494546	      6.64489291	    -18.13530453	     -1.97273915	     -8.28503304	      7.59011055	      2.05231706	     -5.82495131	    -12.94704357	    -23.38784372	     20.81092746	     47.60973332	      0.00000000	      0.00000000	     10.25168179	    -12.82466609	     -7.30521614	     82.30527841	     47.74878059	      0.00000000	      0.00000000
     28.38457143	     -3.26551562	     -5.03942992	      2.92093569	      1.11694740	      0.92636987	      0.45874806	     18.24356088	      1.06996271	    -19.50022674	     19.53867741	     19.53867741	      7.16498579	     -1.61946042	     -4.82433510	     13.28418156	    -11.30913640	     -4.19268527	     58.45020258	     58.45020258	      8.62223883	    -17.86451044	      6.53857336	     -8.18447819	      7.63506975	      2.63747215	     -4.52879507	    -13.15540872	    -22.24066131	     22.13426331	     47.43356502	      0.00000000	      0.00000000	     10.06232740	    -11.81901880	     -7.09192689	     77.49787438	     47.66725006	      0.00000000	      0.00000000
     28.39571429	     -3.20880005	     -5.35401842	      3.20161869	      1.11628166	      0.92731199	      0.46056029	     17.28447664	      1.63079557	    -19.80346287	     18.92291914	     18.92291914	      7.48807404	     -1.38020669	     -4.82886235	     15.38704783	    -11.99297000	     -3.58445568	     60.92972608	     60.92972608	      7.97059578	    -18.14475867	      6.84498233	     -8.29733516	      7.81655577	      2.80287101	     -2.61154141	    -13.37629700	    -22.07066675	     23.16537137	     47.38746093	      0.00000000	      0.00000000	      8.57701539	    -11.34527514	     -6.52362857	     76.05816495	     47.59320434	      0.00000000	      0.00000000
     28.40685714	     -3.22059511	     -5.52012872	      3.50602930	      1.11551636	      0.92825396	      0.46211637	     16.28772379	      2.05277295	    -20.11065287	     18.07018777	     18.07018777	      7.65862201	     -1.05131141	     -5.17989562	     17.61482624	    -12.33201185	     -2.84807567	     63.09639605	     63.09639605	      8.56179950	    -18.10846119	      9.74744615	     -8.24432328	      7.90059699	      3.14459932	     -1.01339003	    -13.64372629	    -20.76723219	     24.64270821	     47.20109714	      0.00000000	      0.00000000	      8.19701403	    -10.77569408	     -5.93618439	     71.39873024	     47.48299868	      0.00000000	      0.00000000
     28.41800000	     -3.21344113	     -5.69699316	      3.80315933	      1.11464594	      0.92906051	      0.46360686	     15.34996455	      2.49578867	    -20.30238140	     17.34060868	     17.34060868	      7.90401207	     -0.91902768	     -5.21200395	     19.69877714	    -12.68006622	     -2.22134381	     64.60940625	     64.60940625	      8.42857329	    -18.17857645	      9.97365317	     -8.28480579	      7.95033667	      3.07730001	      1.11301298	    -13.79773467	    -20.35477156	     25.94473830	     47.12151680	      0.00000000	      0.00000000	      6.82880184	    -10.56517907	     -5.38873893	     69.03908763	     47.39775921	      0.00000000	      0.00000000
     28.42914286	     -3.23059274	     -5.82155757	      4.08710951	      1.11361828	      0.92972820	      0.46498262	     14.48454953	      2.87929546	    -20.37201750	     16.65628587	     16.65628587	      8.02748174	     -0.92867496	     -5.59786690	     21.79748450	    -12.88541424	     -1.59735525	     65.70477053	     65.70477053	      8.67531630	    -18.16788955	     10.70017185	     -8.30201701	      7.93823533	      3.65792346	      2.70673057	    -14.24891612	    -18.88506308	     27.42237229	     46.93274080	      0.00000000	      0.00000000	      6.58898941	     -9.82391098	     -4.73878221	     64.46393722	     47.28217036	      0.00000000	      0.00000000
     28.44028571	     -3.24817166	     -5.90011687	      4.40103541	      1.11248526	      0.93032957	      0.46615862	     13.63474424	      3.20550527	    -20.46851160	     15.99535993	     15.99535993	      8.25108798	     -0.91936039	     -5.62216909	     23.79544545	    -12.95876368	     -0.99013887	     66.22034806	     66.22034806	      8.71485048	    -18.14107051	     10.58676110	     -8.36108088	      7.86270498	      3.47577570	      5.00220040	    -14.38412998	    -18.51627401	     28.78146100	     46.85990117	      0.00000000	      0.00000000	      5.27995911	     -9.65174319	     -4.24327907	     61.98828290	     47.19807528	      0.00000000	      0.00000000
